#!OML:ASF E:\inclinewalkrobotboard\Project 1\Capture day 1\Session 1\subject1.ASF
:FULLY-SPECIFIED
:DEGREES
1736
root 11.7879 16.5974 -8.03829 -1.7306 -6.77296 -3.8086
lowerback 9.98791 -3.12847 -7.88809
upperback 7.52501 -4.81632 3.95529
thorax 3.39849 -2.92704 8.95098
lowerneck -2.60682 -3.59566 -4.02534
upperneck 23.3577 -4.67411 -0.091901
head 7.70612 -2.61984 0.300972
rclavicle 5.42434e-014 -1.89342e-014
rhumerus -56.0267 -18.0969 -61.9712
rradius 34.9625
rwrist 9.12402
rhand -12.8813 -42.7573
rfingers 7.12502
rthumb 13.2076 -432.319
lclavicle 5.42434e-014 -1.89342e-014
lhumerus -20.1585 -5.57993 81.1351
lradius 38.8675
lwrist -16.7607
lhand -25.9453 341.497
lfingers 7.12502
lthumb 0.598619 11.4759
rfemur -77.9706 -2.14102 9.02786
rtibia 62.382
rfoot 733.876 -5.26869
rtoes -25.8125
lfemur -1.58617 -7.57316 -21.9349
ltibia 11.0596
lfoot 707.581 9.78664
ltoes -50.2659
1737
root 11.7848 16.5991 -8.0269 -1.48474 -6.64394 -3.69525
lowerback 9.49124 -3.23559 -7.91845
upperback 7.37774 -4.93082 4.00098
thorax 3.54557 -2.98747 8.99001
lowerneck -2.77983 -3.36562 -4.12122
upperneck 24.2455 -4.37926 0.0292956
head 8.03421 -2.48726 0.366887
rclavicle -4.67424e-014 1.85118e-014
rhumerus -55.4706 -17.3993 -62.5986
rradius 35.5253
rwrist 8.66245
rhand -13.8812 -42.9675
rfingers 7.12502
rthumb 12.2437 -432.589
lclavicle -4.67424e-014 1.85118e-014
lhumerus -20.5234 -5.69553 81.5196
lradius 39.1547
lwrist -16.9215
lhand -25.4665 341.593
lfingers 7.12502
lthumb 1.06104 11.5699
rfemur -74.3973 -2.3515 8.49803
rtibia 56.646
rfoot 734.133 -5.44447
rtoes -26.1243
lfemur -1.67217 -7.54441 -22.0433
ltibia 10.7842
lfoot 707.605 9.56902
ltoes -49.3893
1738
root 11.7789 16.6 -8.01395 -1.18233 -6.27751 -3.7328
lowerback 8.96654 -3.33992 -7.7418
upperback 7.23234 -5.0264 4.07987
thorax 3.68757 -3.0291 8.94195
lowerneck -2.68001 -3.13149 -4.798
upperneck 25.0818 -4.1893 0.868948
head 8.3311 -2.39234 0.770713
rclavicle 8.93661e-014 -3.39673e-014
rhumerus -55.0104 -17.0062 -63.2018
rradius 36.2446
rwrist 8.52863
rhand -14.1568 -42.363
rfingers 7.12502
rthumb 11.9779 -432
lclavicle 8.93661e-014 -3.39673e-014
lhumerus -20.8413 -6.06814 81.9603
lradius 39.3362
lwrist -17.053
lhand -25.1584 341.687
lfingers 7.12502
lthumb 1.3586 11.6625
rfemur -70.4275 -2.60302 7.95955
rtibia 50.7101
rfoot 734.3 -6.1166
rtoes -26.2857
lfemur -1.85805 -7.63534 -21.9556
ltibia 10.5434
lfoot 707.629 9.23516
ltoes -48.5214
1739
root 11.7651 16.5978 -7.99239 -0.817255 -5.74915 -3.90854
lowerback 8.29517 -3.41788 -7.44483
upperback 7.10464 -5.07431 4.20622
thorax 3.91218 -3.04671 8.86261
lowerneck -3.09669 -3.08574 -4.83934
upperneck 26.1296 -4.16621 1.07514
head 8.77378 -2.37328 0.835721
rclavicle 1.86361e-014 -1.73937e-014
rhumerus -54.6559 -16.9915 -63.3898
rradius 36.3857
rwrist 8.76411
rhand -15.512 -41.0965
rfingers 7.12502
rthumb 10.6709 -430.805
lclavicle 1.86361e-014 -1.73937e-014
lhumerus -21.094 -6.74996 82.4486
lradius 39.3738
lwrist -16.9707
lhand -25.1646 341.431
lfingers 7.12502
lthumb 1.3526 11.4068
rfemur -66.221 -2.71438 7.40495
rtibia 44.7675
rfoot 734.107 -7.14986
rtoes -26.2624
lfemur -2.13683 -7.66206 -21.6519
ltibia 10.3793
lfoot 707.911 8.8384
ltoes -49.4403
1740
root 11.7463 16.5931 -7.95942 -0.506713 -5.22579 -3.86529
lowerback 7.54982 -3.42456 -7.35976
upperback 6.97211 -5.03562 4.2524
thorax 4.17021 -3.02833 8.81161
lowerneck -3.28458 -3.15356 -4.65472
upperneck 26.8969 -4.28134 1.05029
head 9.07632 -2.41607 0.778393
rclavicle 1.63252e-014 2.19657e-014
rhumerus -54.3525 -16.917 -63.7021
rradius 36.7207
rwrist 8.47122
rhand -15.7561 -41.949
rfingers 7.12502
rthumb 10.4354 -431.67
lclavicle 1.63252e-014 2.19657e-014
lhumerus -21.4961 -7.53456 82.9576
lradius 39.4138
lwrist -16.8194
lhand -25.0487 341.141
lfingers 7.12502
lthumb 1.4645 11.1154
rfemur -61.9466 -2.54825 6.50243
rtibia 39.0811
rfoot 733.346 -8.40231
rtoes -26.2558
lfemur -2.29162 -7.51422 -21.5706
ltibia 10.1679
lfoot 708.197 8.22443
ltoes -50.3246
1741
root 11.7148 16.5865 -7.93827 -0.0223146 -4.55523 -4.20625
lowerback 6.91505 -3.4519 -6.97135
upperback 6.71086 -5.0215 4.40545
thorax 4.21328 -2.99665 8.71618
lowerneck -3.32732 -3.24931 -4.55297
upperneck 27.6118 -4.47206 1.17804
head 9.34489 -2.48628 0.783023
rclavicle -8.87574e-014 1.15295e-014
rhumerus -54.0878 -17.0833 -63.7837
rradius 36.6911
rwrist 8.35619
rhand -15.3225 -42.0566
rfingers 7.12502
rthumb 10.8537 -431.756
lclavicle -8.87574e-014 1.15295e-014
lhumerus -22.1476 -8.22709 83.415
lradius 39.4935
lwrist -16.8115
lhand -25.0387 340.77
lfingers 7.12502
lthumb 1.47423 10.7449
rfemur -57.8658 -1.89907 5.79902
rtibia 33.8707
rfoot 732.178 -10.1932
rtoes -25.7137
lfemur -2.86035 -7.25193 -20.8349
ltibia 10.2011
lfoot 708.434 7.25907
ltoes -50.0923
1742
root 11.6794 16.5813 -7.91369 0.439957 -3.93901 -4.74387
lowerback 6.32402 -3.44767 -6.40003
upperback 6.43641 -4.96717 4.61782
thorax 4.19852 -2.93605 8.58378
lowerneck -3.37305 -3.32149 -4.48954
upperneck 28.3512 -4.61991 1.27581
head 9.62568 -2.54163 0.787501
rclavicle 3.00165e-014 1.68967e-014
rhumerus -54.0181 -17.1662 -63.8241
rradius 36.7287
rwrist 8.30862
rhand -14.9923 -42.1574
rfingers 7.12502
rthumb 11.1721 -431.84
lclavicle 3.00165e-014 1.68967e-014
lhumerus -22.8864 -8.64568 83.9012
lradius 39.4727
lwrist -16.8749
lhand -25.085 340.422
lfingers 7.12502
lthumb 1.4295 10.3965
rfemur -53.8364 -0.915422 5.44797
rtibia 29.1149
rfoot 731.146 -11.9173
rtoes -25.1066
lfemur -3.39967 -6.99711 -19.8502
ltibia 10.2644
lfoot 708.529 6.35614
ltoes -49.238
1743
root 11.6608 16.571 -7.82345 0.219028 -3.12322 -3.87082
lowerback 5.49283 -3.46351 -6.91765
upperback 6.45732 -4.95572 4.35349
thorax 4.71134 -2.96468 8.53428
lowerneck -3.53319 -3.52715 -4.52259
upperneck 29.1426 -4.93055 1.33831
head 9.95989 -2.68249 0.777587
rclavicle -3.43897e-014 -8.34896e-015
rhumerus -54.2208 -17.1223 -63.9696
rradius 37.1176
rwrist 8.20619
rhand -15.9289 -41.8808
rfingers 7.12502
rthumb 10.2687 -431.61
lclavicle -3.43897e-014 -8.34896e-015
lhumerus -23.5843 -8.87136 84.4385
lradius 39.2695
lwrist -16.9891
lhand -24.9055 340.43
lfingers 7.12502
lthumb 1.60285 10.4038
rfemur -48.9334 -1.22002 4.31017
rtibia 24.6877
rfoot 730.675 -12.1071
rtoes -24.4666
lfemur -2.50325 -7.02883 -21.0698
ltibia 9.64176
lfoot 708.491 5.47335
ltoes -47.9035
1744
root 11.622 16.5634 -7.77592 0.481304 -2.48247 -3.78347
lowerback 4.79268 -3.3683 -6.89583
upperback 6.29961 -4.78983 4.37808
thorax 4.90173 -2.88019 8.50844
lowerneck -3.72489 -3.72439 -4.65688
upperneck 29.9536 -5.26688 1.58621
head 10.3229 -2.8239 0.846168
rclavicle -8.10048e-015 -5.96354e-016
rhumerus -54.2515 -17.3089 -63.8593
rradius 37.045
rwrist 8.17263
rhand -17.2333 -39.5812
rfingers 7.12502
rthumb 9.01023 -429.369
lclavicle -8.10048e-015 -5.96354e-016
lhumerus -24.2889 -9.0804 84.9092
lradius 38.9906
lwrist -17.0701
lhand -24.6466 340.798
lfingers 7.12502
lthumb 1.85292 10.7697
rfemur -45.0125 -0.839417 4.10905
rtibia 21.3386
rfoot 730.199 -12.8463
rtoes -24.4854
lfemur -2.67154 -6.92365 -20.9461
ltibia 9.60682
lfoot 708.517 4.66761
ltoes -46.9763
